<svg xmlns="http://www.w3.org/2000/svg" viewBox="0 0 32 32">
  <rect width="32" height="32" rx="8" fill="#fff"/>
  <g transform="translate(16,16) scale(1.25) translate(-16,-16)">
    <path d="M18,28 Q16,22 14,18 Q12,14 14,12" fill="none" stroke="#16a34a" stroke-width="1.5" stroke-linecap="round"/>
    <path d="M16,4 Q13,8 10,9 Q12,12 14,11 Q13,14 11,15 Q14,16 16,14 Q18,16 21,15 Q19,14 18,11 Q20,12 22,9 Q19,8 16,4 Z" fill="#16a34a"/>
    <path d="M8,18 Q7,20 8,22 Q10,21 11,19 Q10,18 8,18 Z" fill="#22c55e"/>
    <path d="M20,20 Q21,18 23,18 Q23,20 22,22 Q20,21 20,20 Z" fill="#22c55e"/>
    <path d="M14,12 Q12,10 13,8" fill="none" stroke="#22c55e" stroke-width="0.8" stroke-linecap="round"/>
  </g>
</svg>